<mxfile host="app.diagrams.net" modified="2023-05-19T16:54:11.513Z" agent="Mozilla/5.0 (Windows NT 10.0; Win64; x64) AppleWebKit/537.36 (KHTML, like Gecko) Chrome/113.0.0.0 Safari/537.36" etag="f666o_zi_PN4F34DV_oc" version="21.3.2" type="device">
  <diagram id="C5RBs43oDa-KdzZeNtuy" name="Page-1">
    <mxGraphModel dx="1832" dy="971" grid="1" gridSize="10" guides="1" tooltips="1" connect="1" arrows="1" fold="1" page="1" pageScale="1" pageWidth="827" pageHeight="1169" math="0" shadow="0">
      <root>
        <mxCell id="WIyWlLk6GJQsqaUBKTNV-0" />
        <mxCell id="WIyWlLk6GJQsqaUBKTNV-1" parent="WIyWlLk6GJQsqaUBKTNV-0" />
        <mxCell id="eBTDrFPib6VvDSLRsoKk-4" style="edgeStyle=orthogonalEdgeStyle;rounded=0;orthogonalLoop=1;jettySize=auto;html=1;exitX=0.5;exitY=1;exitDx=0;exitDy=0;entryX=0.5;entryY=0;entryDx=0;entryDy=0;" edge="1" parent="WIyWlLk6GJQsqaUBKTNV-1" source="eBTDrFPib6VvDSLRsoKk-0" target="eBTDrFPib6VvDSLRsoKk-3">
          <mxGeometry relative="1" as="geometry" />
        </mxCell>
        <mxCell id="eBTDrFPib6VvDSLRsoKk-0" value="StartUp und&lt;br&gt;Initiallisierung" style="rounded=1;whiteSpace=wrap;html=1;" vertex="1" parent="WIyWlLk6GJQsqaUBKTNV-1">
          <mxGeometry x="585" y="40" width="120" height="60" as="geometry" />
        </mxCell>
        <mxCell id="eBTDrFPib6VvDSLRsoKk-6" value="nein" style="edgeStyle=orthogonalEdgeStyle;rounded=0;orthogonalLoop=1;jettySize=auto;html=1;exitX=1;exitY=0.5;exitDx=0;exitDy=0;entryX=0;entryY=0.5;entryDx=0;entryDy=0;" edge="1" parent="WIyWlLk6GJQsqaUBKTNV-1" source="eBTDrFPib6VvDSLRsoKk-3" target="eBTDrFPib6VvDSLRsoKk-5">
          <mxGeometry x="0.1429" y="15" relative="1" as="geometry">
            <mxPoint as="offset" />
          </mxGeometry>
        </mxCell>
        <mxCell id="eBTDrFPib6VvDSLRsoKk-8" value="ja" style="edgeStyle=orthogonalEdgeStyle;rounded=0;orthogonalLoop=1;jettySize=auto;html=1;exitX=0.5;exitY=1;exitDx=0;exitDy=0;entryX=0.5;entryY=0;entryDx=0;entryDy=0;" edge="1" parent="WIyWlLk6GJQsqaUBKTNV-1" source="eBTDrFPib6VvDSLRsoKk-3" target="eBTDrFPib6VvDSLRsoKk-7">
          <mxGeometry relative="1" as="geometry" />
        </mxCell>
        <mxCell id="eBTDrFPib6VvDSLRsoKk-3" value="Verbindung zum&lt;br&gt;&amp;nbsp;I²C-Slave?" style="rhombus;whiteSpace=wrap;html=1;" vertex="1" parent="WIyWlLk6GJQsqaUBKTNV-1">
          <mxGeometry x="580" y="170" width="130" height="70" as="geometry" />
        </mxCell>
        <mxCell id="eBTDrFPib6VvDSLRsoKk-101" value="Sprung nach" style="edgeStyle=orthogonalEdgeStyle;rounded=0;orthogonalLoop=1;jettySize=auto;html=1;exitX=0.5;exitY=1;exitDx=0;exitDy=0;entryX=0.5;entryY=0;entryDx=0;entryDy=0;entryPerimeter=0;" edge="1" parent="WIyWlLk6GJQsqaUBKTNV-1" source="eBTDrFPib6VvDSLRsoKk-5" target="eBTDrFPib6VvDSLRsoKk-100">
          <mxGeometry relative="1" as="geometry" />
        </mxCell>
        <mxCell id="eBTDrFPib6VvDSLRsoKk-5" value="status: error 1" style="rounded=1;whiteSpace=wrap;html=1;fillColor=#a20025;fontColor=#ffffff;strokeColor=#6F0000;" vertex="1" parent="WIyWlLk6GJQsqaUBKTNV-1">
          <mxGeometry x="780" y="187.5" width="100" height="35" as="geometry" />
        </mxCell>
        <mxCell id="eBTDrFPib6VvDSLRsoKk-10" value="ja" style="edgeStyle=orthogonalEdgeStyle;rounded=0;orthogonalLoop=1;jettySize=auto;html=1;exitX=0.5;exitY=1;exitDx=0;exitDy=0;entryX=0.5;entryY=0;entryDx=0;entryDy=0;" edge="1" parent="WIyWlLk6GJQsqaUBKTNV-1" source="eBTDrFPib6VvDSLRsoKk-14" target="eBTDrFPib6VvDSLRsoKk-9">
          <mxGeometry relative="1" as="geometry" />
        </mxCell>
        <mxCell id="eBTDrFPib6VvDSLRsoKk-7" value="status: ready" style="rounded=1;whiteSpace=wrap;html=1;" vertex="1" parent="WIyWlLk6GJQsqaUBKTNV-1">
          <mxGeometry x="597.5" y="300" width="95" height="40" as="geometry" />
        </mxCell>
        <mxCell id="eBTDrFPib6VvDSLRsoKk-9" value="status: measuring" style="rounded=1;whiteSpace=wrap;html=1;" vertex="1" parent="WIyWlLk6GJQsqaUBKTNV-1">
          <mxGeometry x="592.5" y="560" width="112.5" height="40" as="geometry" />
        </mxCell>
        <mxCell id="eBTDrFPib6VvDSLRsoKk-54" style="edgeStyle=orthogonalEdgeStyle;rounded=0;orthogonalLoop=1;jettySize=auto;html=1;entryX=0;entryY=0.5;entryDx=0;entryDy=0;exitX=0.5;exitY=1;exitDx=0;exitDy=0;" edge="1" parent="WIyWlLk6GJQsqaUBKTNV-1" source="eBTDrFPib6VvDSLRsoKk-154" target="eBTDrFPib6VvDSLRsoKk-14">
          <mxGeometry relative="1" as="geometry">
            <mxPoint x="530" y="820" as="sourcePoint" />
            <mxPoint x="540" y="490" as="targetPoint" />
            <Array as="points">
              <mxPoint x="645" y="930" />
              <mxPoint x="520" y="930" />
              <mxPoint x="520" y="456" />
            </Array>
          </mxGeometry>
        </mxCell>
        <mxCell id="eBTDrFPib6VvDSLRsoKk-151" style="edgeStyle=orthogonalEdgeStyle;rounded=0;orthogonalLoop=1;jettySize=auto;html=1;exitX=0.5;exitY=1;exitDx=0;exitDy=0;entryX=0.5;entryY=0;entryDx=0;entryDy=0;" edge="1" parent="WIyWlLk6GJQsqaUBKTNV-1" source="eBTDrFPib6VvDSLRsoKk-11" target="eBTDrFPib6VvDSLRsoKk-150">
          <mxGeometry relative="1" as="geometry" />
        </mxCell>
        <mxCell id="eBTDrFPib6VvDSLRsoKk-11" value="Startsignal senden" style="rounded=1;whiteSpace=wrap;html=1;" vertex="1" parent="WIyWlLk6GJQsqaUBKTNV-1">
          <mxGeometry x="601.25" y="650" width="95" height="40" as="geometry" />
        </mxCell>
        <mxCell id="eBTDrFPib6VvDSLRsoKk-15" value="" style="edgeStyle=orthogonalEdgeStyle;rounded=0;orthogonalLoop=1;jettySize=auto;html=1;exitX=0.5;exitY=1;exitDx=0;exitDy=0;entryX=0.5;entryY=0;entryDx=0;entryDy=0;" edge="1" parent="WIyWlLk6GJQsqaUBKTNV-1" source="eBTDrFPib6VvDSLRsoKk-7" target="eBTDrFPib6VvDSLRsoKk-14">
          <mxGeometry relative="1" as="geometry">
            <mxPoint x="645" y="340" as="sourcePoint" />
            <mxPoint x="645" y="472" as="targetPoint" />
          </mxGeometry>
        </mxCell>
        <mxCell id="eBTDrFPib6VvDSLRsoKk-50" value="nein" style="edgeStyle=orthogonalEdgeStyle;rounded=0;orthogonalLoop=1;jettySize=auto;html=1;exitX=1;exitY=0.5;exitDx=0;exitDy=0;entryX=0;entryY=0.5;entryDx=0;entryDy=0;" edge="1" parent="WIyWlLk6GJQsqaUBKTNV-1" source="eBTDrFPib6VvDSLRsoKk-14" target="eBTDrFPib6VvDSLRsoKk-39">
          <mxGeometry relative="1" as="geometry" />
        </mxCell>
        <mxCell id="eBTDrFPib6VvDSLRsoKk-14" value="status =&lt;br&gt;ready?" style="rhombus;whiteSpace=wrap;html=1;fillColor=#fa6800;fontColor=#000000;strokeColor=#C73500;" vertex="1" parent="WIyWlLk6GJQsqaUBKTNV-1">
          <mxGeometry x="607.5" y="416" width="80" height="80" as="geometry" />
        </mxCell>
        <mxCell id="eBTDrFPib6VvDSLRsoKk-16" value="" style="edgeStyle=orthogonalEdgeStyle;rounded=0;orthogonalLoop=1;jettySize=auto;html=1;exitX=0.5;exitY=1;exitDx=0;exitDy=0;entryX=0.5;entryY=0;entryDx=0;entryDy=0;" edge="1" parent="WIyWlLk6GJQsqaUBKTNV-1" source="eBTDrFPib6VvDSLRsoKk-9" target="eBTDrFPib6VvDSLRsoKk-11">
          <mxGeometry relative="1" as="geometry">
            <mxPoint x="649" y="568" as="sourcePoint" />
            <mxPoint x="648.75" y="620" as="targetPoint" />
          </mxGeometry>
        </mxCell>
        <mxCell id="eBTDrFPib6VvDSLRsoKk-67" style="edgeStyle=orthogonalEdgeStyle;rounded=0;orthogonalLoop=1;jettySize=auto;html=1;exitX=0.5;exitY=1;exitDx=0;exitDy=0;entryX=0.5;entryY=0;entryDx=0;entryDy=0;" edge="1" parent="WIyWlLk6GJQsqaUBKTNV-1" source="eBTDrFPib6VvDSLRsoKk-18" target="eBTDrFPib6VvDSLRsoKk-63">
          <mxGeometry relative="1" as="geometry" />
        </mxCell>
        <mxCell id="eBTDrFPib6VvDSLRsoKk-18" value="Signalisierung über&lt;br&gt;Status-LED" style="rounded=1;whiteSpace=wrap;html=1;" vertex="1" parent="WIyWlLk6GJQsqaUBKTNV-1">
          <mxGeometry x="1275" y="430" width="115" height="40" as="geometry" />
        </mxCell>
        <mxCell id="eBTDrFPib6VvDSLRsoKk-24" style="edgeStyle=orthogonalEdgeStyle;rounded=0;orthogonalLoop=1;jettySize=auto;html=1;exitX=0.5;exitY=1;exitDx=0;exitDy=0;entryX=0.5;entryY=0;entryDx=0;entryDy=0;" edge="1" parent="WIyWlLk6GJQsqaUBKTNV-1" source="eBTDrFPib6VvDSLRsoKk-22" target="eBTDrFPib6VvDSLRsoKk-23">
          <mxGeometry relative="1" as="geometry" />
        </mxCell>
        <mxCell id="eBTDrFPib6VvDSLRsoKk-47" value="nein" style="edgeStyle=orthogonalEdgeStyle;rounded=0;orthogonalLoop=1;jettySize=auto;html=1;exitX=0.5;exitY=1;exitDx=0;exitDy=0;entryX=0.5;entryY=0;entryDx=0;entryDy=0;" edge="1" parent="WIyWlLk6GJQsqaUBKTNV-1" source="eBTDrFPib6VvDSLRsoKk-168" target="eBTDrFPib6VvDSLRsoKk-45">
          <mxGeometry relative="1" as="geometry">
            <Array as="points">
              <mxPoint x="956" y="680" />
            </Array>
          </mxGeometry>
        </mxCell>
        <mxCell id="eBTDrFPib6VvDSLRsoKk-20" value="status: processing" style="rounded=1;whiteSpace=wrap;html=1;" vertex="1" parent="WIyWlLk6GJQsqaUBKTNV-1">
          <mxGeometry x="917.5" y="451" width="95" height="40" as="geometry" />
        </mxCell>
        <mxCell id="eBTDrFPib6VvDSLRsoKk-30" value="ja" style="edgeStyle=orthogonalEdgeStyle;rounded=0;orthogonalLoop=1;jettySize=auto;html=1;exitX=0.5;exitY=1;exitDx=0;exitDy=0;entryX=0.5;entryY=0;entryDx=0;entryDy=0;" edge="1" parent="WIyWlLk6GJQsqaUBKTNV-1" source="eBTDrFPib6VvDSLRsoKk-23" target="eBTDrFPib6VvDSLRsoKk-29">
          <mxGeometry relative="1" as="geometry" />
        </mxCell>
        <mxCell id="eBTDrFPib6VvDSLRsoKk-23" value="&amp;nbsp;erfolgreich?" style="rhombus;whiteSpace=wrap;html=1;" vertex="1" parent="WIyWlLk6GJQsqaUBKTNV-1">
          <mxGeometry x="903.75" y="875" width="92.5" height="90" as="geometry" />
        </mxCell>
        <mxCell id="eBTDrFPib6VvDSLRsoKk-25" value="ja" style="edgeStyle=orthogonalEdgeStyle;rounded=0;orthogonalLoop=1;jettySize=auto;html=1;exitX=0.5;exitY=1;exitDx=0;exitDy=0;entryX=0.5;entryY=0;entryDx=0;entryDy=0;" edge="1" parent="WIyWlLk6GJQsqaUBKTNV-1" source="eBTDrFPib6VvDSLRsoKk-45" target="eBTDrFPib6VvDSLRsoKk-22">
          <mxGeometry relative="1" as="geometry">
            <mxPoint x="948" y="770" as="sourcePoint" />
            <mxPoint x="949" y="845" as="targetPoint" />
          </mxGeometry>
        </mxCell>
        <mxCell id="eBTDrFPib6VvDSLRsoKk-22" value="Luftfeuchtigkeit senden" style="rounded=1;whiteSpace=wrap;html=1;" vertex="1" parent="WIyWlLk6GJQsqaUBKTNV-1">
          <mxGeometry x="902.5" y="795" width="95" height="40" as="geometry" />
        </mxCell>
        <mxCell id="eBTDrFPib6VvDSLRsoKk-27" value="nein" style="edgeStyle=orthogonalEdgeStyle;rounded=0;orthogonalLoop=1;jettySize=auto;html=1;exitX=1;exitY=0.5;exitDx=0;exitDy=0;entryX=0;entryY=0.5;entryDx=0;entryDy=0;" edge="1" parent="WIyWlLk6GJQsqaUBKTNV-1" target="eBTDrFPib6VvDSLRsoKk-28" source="eBTDrFPib6VvDSLRsoKk-23">
          <mxGeometry x="0.1429" y="15" relative="1" as="geometry">
            <mxPoint x="1010" y="920" as="sourcePoint" />
            <mxPoint as="offset" />
          </mxGeometry>
        </mxCell>
        <mxCell id="eBTDrFPib6VvDSLRsoKk-28" value="status: error 1" style="rounded=1;whiteSpace=wrap;html=1;fillColor=#a20025;fontColor=#ffffff;strokeColor=#6F0000;" vertex="1" parent="WIyWlLk6GJQsqaUBKTNV-1">
          <mxGeometry x="1080" y="902.5" width="100" height="35" as="geometry" />
        </mxCell>
        <mxCell id="eBTDrFPib6VvDSLRsoKk-29" value="5 Sekunden warten" style="rounded=1;whiteSpace=wrap;html=1;" vertex="1" parent="WIyWlLk6GJQsqaUBKTNV-1">
          <mxGeometry x="902.5" y="1005" width="95" height="40" as="geometry" />
        </mxCell>
        <mxCell id="eBTDrFPib6VvDSLRsoKk-31" style="edgeStyle=orthogonalEdgeStyle;rounded=0;orthogonalLoop=1;jettySize=auto;html=1;exitX=0.5;exitY=1;exitDx=0;exitDy=0;entryX=0.5;entryY=0;entryDx=0;entryDy=0;" edge="1" parent="WIyWlLk6GJQsqaUBKTNV-1" source="eBTDrFPib6VvDSLRsoKk-35" target="eBTDrFPib6VvDSLRsoKk-33">
          <mxGeometry relative="1" as="geometry" />
        </mxCell>
        <mxCell id="eBTDrFPib6VvDSLRsoKk-32" value="ja" style="edgeStyle=orthogonalEdgeStyle;rounded=0;orthogonalLoop=1;jettySize=auto;html=1;exitX=0.5;exitY=1;exitDx=0;exitDy=0;entryX=0.5;entryY=0;entryDx=0;entryDy=0;" edge="1" parent="WIyWlLk6GJQsqaUBKTNV-1" source="eBTDrFPib6VvDSLRsoKk-33" target="eBTDrFPib6VvDSLRsoKk-38">
          <mxGeometry relative="1" as="geometry" />
        </mxCell>
        <mxCell id="eBTDrFPib6VvDSLRsoKk-33" value="&amp;nbsp;erfolgreich?" style="rhombus;whiteSpace=wrap;html=1;" vertex="1" parent="WIyWlLk6GJQsqaUBKTNV-1">
          <mxGeometry x="901.25" y="1160" width="92.5" height="90" as="geometry" />
        </mxCell>
        <mxCell id="eBTDrFPib6VvDSLRsoKk-34" value="" style="edgeStyle=orthogonalEdgeStyle;rounded=0;orthogonalLoop=1;jettySize=auto;html=1;entryX=0.5;entryY=0;entryDx=0;entryDy=0;" edge="1" parent="WIyWlLk6GJQsqaUBKTNV-1" target="eBTDrFPib6VvDSLRsoKk-35" source="eBTDrFPib6VvDSLRsoKk-29">
          <mxGeometry relative="1" as="geometry">
            <mxPoint x="945.5" y="1055" as="sourcePoint" />
            <mxPoint x="946.5" y="1130" as="targetPoint" />
          </mxGeometry>
        </mxCell>
        <mxCell id="eBTDrFPib6VvDSLRsoKk-35" value="Temperatur senden" style="rounded=1;whiteSpace=wrap;html=1;" vertex="1" parent="WIyWlLk6GJQsqaUBKTNV-1">
          <mxGeometry x="900" y="1080" width="95" height="40" as="geometry" />
        </mxCell>
        <mxCell id="eBTDrFPib6VvDSLRsoKk-36" value="nein" style="edgeStyle=orthogonalEdgeStyle;rounded=0;orthogonalLoop=1;jettySize=auto;html=1;exitX=1;exitY=0.5;exitDx=0;exitDy=0;entryX=0;entryY=0.5;entryDx=0;entryDy=0;" edge="1" parent="WIyWlLk6GJQsqaUBKTNV-1" source="eBTDrFPib6VvDSLRsoKk-33" target="eBTDrFPib6VvDSLRsoKk-37">
          <mxGeometry x="0.1429" y="15" relative="1" as="geometry">
            <mxPoint x="1007.5" y="1205" as="sourcePoint" />
            <mxPoint as="offset" />
          </mxGeometry>
        </mxCell>
        <mxCell id="eBTDrFPib6VvDSLRsoKk-37" value="status: error 1" style="rounded=1;whiteSpace=wrap;html=1;fillColor=#a20025;fontColor=#ffffff;strokeColor=#6F0000;" vertex="1" parent="WIyWlLk6GJQsqaUBKTNV-1">
          <mxGeometry x="1077.5" y="1187.5" width="100" height="35" as="geometry" />
        </mxCell>
        <mxCell id="eBTDrFPib6VvDSLRsoKk-58" style="edgeStyle=orthogonalEdgeStyle;rounded=0;orthogonalLoop=1;jettySize=auto;html=1;exitX=0.5;exitY=1;exitDx=0;exitDy=0;entryX=0.5;entryY=0;entryDx=0;entryDy=0;" edge="1" parent="WIyWlLk6GJQsqaUBKTNV-1" source="eBTDrFPib6VvDSLRsoKk-38" target="eBTDrFPib6VvDSLRsoKk-56">
          <mxGeometry relative="1" as="geometry" />
        </mxCell>
        <mxCell id="eBTDrFPib6VvDSLRsoKk-38" value="5 Sekunden warten" style="rounded=1;whiteSpace=wrap;html=1;" vertex="1" parent="WIyWlLk6GJQsqaUBKTNV-1">
          <mxGeometry x="900" y="1290" width="95" height="40" as="geometry" />
        </mxCell>
        <mxCell id="eBTDrFPib6VvDSLRsoKk-40" value="ja" style="edgeStyle=orthogonalEdgeStyle;rounded=0;orthogonalLoop=1;jettySize=auto;html=1;exitX=0.5;exitY=1;exitDx=0;exitDy=0;entryX=0.5;entryY=0;entryDx=0;entryDy=0;" edge="1" parent="WIyWlLk6GJQsqaUBKTNV-1" source="eBTDrFPib6VvDSLRsoKk-39" target="eBTDrFPib6VvDSLRsoKk-20">
          <mxGeometry relative="1" as="geometry">
            <mxPoint x="1077.5" y="366" as="targetPoint" />
          </mxGeometry>
        </mxCell>
        <mxCell id="eBTDrFPib6VvDSLRsoKk-55" value="nein" style="edgeStyle=orthogonalEdgeStyle;rounded=0;orthogonalLoop=1;jettySize=auto;html=1;exitX=1;exitY=0.5;exitDx=0;exitDy=0;entryX=0;entryY=0.5;entryDx=0;entryDy=0;" edge="1" parent="WIyWlLk6GJQsqaUBKTNV-1" source="eBTDrFPib6VvDSLRsoKk-39" target="eBTDrFPib6VvDSLRsoKk-51">
          <mxGeometry relative="1" as="geometry" />
        </mxCell>
        <mxCell id="eBTDrFPib6VvDSLRsoKk-39" value="status =&lt;br&gt;finished?" style="rhombus;whiteSpace=wrap;html=1;fillColor=#6d8764;fontColor=#ffffff;strokeColor=#3A5431;" vertex="1" parent="WIyWlLk6GJQsqaUBKTNV-1">
          <mxGeometry x="927.5" y="316" width="80" height="80" as="geometry" />
        </mxCell>
        <mxCell id="eBTDrFPib6VvDSLRsoKk-49" value="nein" style="edgeStyle=orthogonalEdgeStyle;rounded=0;orthogonalLoop=1;jettySize=auto;html=1;exitX=1;exitY=0.5;exitDx=0;exitDy=0;entryX=0;entryY=0.5;entryDx=0;entryDy=0;" edge="1" parent="WIyWlLk6GJQsqaUBKTNV-1" source="eBTDrFPib6VvDSLRsoKk-45" target="eBTDrFPib6VvDSLRsoKk-48">
          <mxGeometry relative="1" as="geometry" />
        </mxCell>
        <mxCell id="eBTDrFPib6VvDSLRsoKk-45" value="Parität&lt;br&gt;validierbar?" style="rhombus;whiteSpace=wrap;html=1;" vertex="1" parent="WIyWlLk6GJQsqaUBKTNV-1">
          <mxGeometry x="916.25" y="690" width="80" height="80" as="geometry" />
        </mxCell>
        <mxCell id="eBTDrFPib6VvDSLRsoKk-48" value="status: ready" style="rounded=1;whiteSpace=wrap;html=1;" vertex="1" parent="WIyWlLk6GJQsqaUBKTNV-1">
          <mxGeometry x="1040" y="710" width="95" height="40" as="geometry" />
        </mxCell>
        <mxCell id="eBTDrFPib6VvDSLRsoKk-59" value="ja" style="edgeStyle=orthogonalEdgeStyle;rounded=0;orthogonalLoop=1;jettySize=auto;html=1;exitX=0.5;exitY=1;exitDx=0;exitDy=0;entryX=0.5;entryY=0;entryDx=0;entryDy=0;" edge="1" parent="WIyWlLk6GJQsqaUBKTNV-1" source="eBTDrFPib6VvDSLRsoKk-51" target="eBTDrFPib6VvDSLRsoKk-18">
          <mxGeometry relative="1" as="geometry" />
        </mxCell>
        <mxCell id="eBTDrFPib6VvDSLRsoKk-79" value="nein" style="edgeStyle=orthogonalEdgeStyle;rounded=0;orthogonalLoop=1;jettySize=auto;html=1;exitX=1;exitY=0.5;exitDx=0;exitDy=0;entryX=0;entryY=0.5;entryDx=0;entryDy=0;" edge="1" parent="WIyWlLk6GJQsqaUBKTNV-1" source="eBTDrFPib6VvDSLRsoKk-51" target="eBTDrFPib6VvDSLRsoKk-78">
          <mxGeometry relative="1" as="geometry">
            <mxPoint x="1490" y="350.13043478260875" as="targetPoint" />
          </mxGeometry>
        </mxCell>
        <mxCell id="eBTDrFPib6VvDSLRsoKk-51" value="status =&lt;br&gt;invalid?" style="rhombus;whiteSpace=wrap;html=1;fillColor=#f0a30a;fontColor=#000000;strokeColor=#BD7000;" vertex="1" parent="WIyWlLk6GJQsqaUBKTNV-1">
          <mxGeometry x="1290" y="310" width="80" height="80" as="geometry" />
        </mxCell>
        <mxCell id="eBTDrFPib6VvDSLRsoKk-98" style="edgeStyle=orthogonalEdgeStyle;rounded=0;orthogonalLoop=1;jettySize=auto;html=1;exitX=0.5;exitY=1;exitDx=0;exitDy=0;entryX=0.5;entryY=0;entryDx=0;entryDy=0;" edge="1" parent="WIyWlLk6GJQsqaUBKTNV-1" source="eBTDrFPib6VvDSLRsoKk-56" target="eBTDrFPib6VvDSLRsoKk-97">
          <mxGeometry relative="1" as="geometry" />
        </mxCell>
        <mxCell id="eBTDrFPib6VvDSLRsoKk-56" value="Werte zurücksetzen" style="rounded=1;whiteSpace=wrap;html=1;" vertex="1" parent="WIyWlLk6GJQsqaUBKTNV-1">
          <mxGeometry x="898.75" y="1365" width="95" height="40" as="geometry" />
        </mxCell>
        <mxCell id="eBTDrFPib6VvDSLRsoKk-60" style="edgeStyle=orthogonalEdgeStyle;rounded=0;orthogonalLoop=1;jettySize=auto;html=1;exitX=0.5;exitY=1;exitDx=0;exitDy=0;entryX=0.5;entryY=0;entryDx=0;entryDy=0;" edge="1" parent="WIyWlLk6GJQsqaUBKTNV-1" source="eBTDrFPib6VvDSLRsoKk-63" target="eBTDrFPib6VvDSLRsoKk-62">
          <mxGeometry relative="1" as="geometry" />
        </mxCell>
        <mxCell id="eBTDrFPib6VvDSLRsoKk-61" value="ja" style="edgeStyle=orthogonalEdgeStyle;rounded=0;orthogonalLoop=1;jettySize=auto;html=1;exitX=0.5;exitY=1;exitDx=0;exitDy=0;entryX=0.5;entryY=0;entryDx=0;entryDy=0;" edge="1" parent="WIyWlLk6GJQsqaUBKTNV-1" source="eBTDrFPib6VvDSLRsoKk-62" target="eBTDrFPib6VvDSLRsoKk-66">
          <mxGeometry relative="1" as="geometry" />
        </mxCell>
        <mxCell id="eBTDrFPib6VvDSLRsoKk-62" value="zu häufig invalid aufgetreten?" style="rhombus;whiteSpace=wrap;html=1;" vertex="1" parent="WIyWlLk6GJQsqaUBKTNV-1">
          <mxGeometry x="1290" y="590" width="92.5" height="90" as="geometry" />
        </mxCell>
        <mxCell id="eBTDrFPib6VvDSLRsoKk-63" value="invalid-Zähler um 1 erhöhen" style="rounded=1;whiteSpace=wrap;html=1;glass=0;shadow=0;sketch=1;curveFitting=1;jiggle=2;" vertex="1" parent="WIyWlLk6GJQsqaUBKTNV-1">
          <mxGeometry x="1288.75" y="520" width="95" height="40" as="geometry" />
        </mxCell>
        <mxCell id="eBTDrFPib6VvDSLRsoKk-64" value="nein" style="edgeStyle=orthogonalEdgeStyle;rounded=0;orthogonalLoop=1;jettySize=auto;html=1;exitX=0;exitY=0.5;exitDx=0;exitDy=0;entryX=0.25;entryY=0;entryDx=0;entryDy=0;" edge="1" parent="WIyWlLk6GJQsqaUBKTNV-1" source="eBTDrFPib6VvDSLRsoKk-62" target="eBTDrFPib6VvDSLRsoKk-72">
          <mxGeometry x="0.1429" y="15" relative="1" as="geometry">
            <mxPoint x="1396.25" y="635" as="sourcePoint" />
            <mxPoint as="offset" />
            <mxPoint x="1466.25" y="635" as="targetPoint" />
            <Array as="points">
              <mxPoint x="1240" y="635" />
              <mxPoint x="1240" y="930" />
              <mxPoint x="1313" y="930" />
            </Array>
          </mxGeometry>
        </mxCell>
        <mxCell id="eBTDrFPib6VvDSLRsoKk-73" style="edgeStyle=orthogonalEdgeStyle;rounded=0;orthogonalLoop=1;jettySize=auto;html=1;exitX=0.5;exitY=1;exitDx=0;exitDy=0;entryX=0.5;entryY=0;entryDx=0;entryDy=0;" edge="1" parent="WIyWlLk6GJQsqaUBKTNV-1" source="eBTDrFPib6VvDSLRsoKk-66" target="eBTDrFPib6VvDSLRsoKk-69">
          <mxGeometry relative="1" as="geometry" />
        </mxCell>
        <mxCell id="eBTDrFPib6VvDSLRsoKk-66" value="Senden des Fehlercodes 3" style="rounded=1;whiteSpace=wrap;html=1;" vertex="1" parent="WIyWlLk6GJQsqaUBKTNV-1">
          <mxGeometry x="1288.75" y="720" width="95" height="40" as="geometry" />
        </mxCell>
        <mxCell id="eBTDrFPib6VvDSLRsoKk-68" value="ja" style="edgeStyle=orthogonalEdgeStyle;rounded=0;orthogonalLoop=1;jettySize=auto;html=1;exitX=0.5;exitY=1;exitDx=0;exitDy=0;entryX=0.5;entryY=0;entryDx=0;entryDy=0;" edge="1" parent="WIyWlLk6GJQsqaUBKTNV-1" source="eBTDrFPib6VvDSLRsoKk-69" target="eBTDrFPib6VvDSLRsoKk-72">
          <mxGeometry relative="1" as="geometry" />
        </mxCell>
        <mxCell id="eBTDrFPib6VvDSLRsoKk-69" value="&amp;nbsp;erfolgreich?" style="rhombus;whiteSpace=wrap;html=1;" vertex="1" parent="WIyWlLk6GJQsqaUBKTNV-1">
          <mxGeometry x="1290" y="820" width="92.5" height="90" as="geometry" />
        </mxCell>
        <mxCell id="eBTDrFPib6VvDSLRsoKk-70" value="nein" style="edgeStyle=orthogonalEdgeStyle;rounded=0;orthogonalLoop=1;jettySize=auto;html=1;exitX=1;exitY=0.5;exitDx=0;exitDy=0;entryX=0;entryY=0.5;entryDx=0;entryDy=0;" edge="1" parent="WIyWlLk6GJQsqaUBKTNV-1" source="eBTDrFPib6VvDSLRsoKk-69" target="eBTDrFPib6VvDSLRsoKk-71">
          <mxGeometry x="0.1429" y="15" relative="1" as="geometry">
            <mxPoint x="1396.25" y="865" as="sourcePoint" />
            <mxPoint as="offset" />
          </mxGeometry>
        </mxCell>
        <mxCell id="eBTDrFPib6VvDSLRsoKk-71" value="status: error 1" style="rounded=1;whiteSpace=wrap;html=1;fillColor=#a20025;fontColor=#ffffff;strokeColor=#6F0000;" vertex="1" parent="WIyWlLk6GJQsqaUBKTNV-1">
          <mxGeometry x="1466.25" y="847.5" width="100" height="35" as="geometry" />
        </mxCell>
        <mxCell id="eBTDrFPib6VvDSLRsoKk-75" style="edgeStyle=orthogonalEdgeStyle;rounded=0;orthogonalLoop=1;jettySize=auto;html=1;exitX=0.5;exitY=1;exitDx=0;exitDy=0;entryX=0.5;entryY=0;entryDx=0;entryDy=0;" edge="1" parent="WIyWlLk6GJQsqaUBKTNV-1" source="eBTDrFPib6VvDSLRsoKk-72" target="eBTDrFPib6VvDSLRsoKk-162">
          <mxGeometry relative="1" as="geometry">
            <mxPoint x="1330" y="1037.5" as="targetPoint" />
            <Array as="points">
              <mxPoint x="1336" y="1090" />
              <mxPoint x="1398" y="1090" />
            </Array>
          </mxGeometry>
        </mxCell>
        <mxCell id="eBTDrFPib6VvDSLRsoKk-72" value="2 Sekunden warten" style="rounded=1;whiteSpace=wrap;html=1;" vertex="1" parent="WIyWlLk6GJQsqaUBKTNV-1">
          <mxGeometry x="1288.75" y="950" width="95" height="40" as="geometry" />
        </mxCell>
        <mxCell id="eBTDrFPib6VvDSLRsoKk-81" style="edgeStyle=orthogonalEdgeStyle;rounded=0;orthogonalLoop=1;jettySize=auto;html=1;exitX=0.5;exitY=1;exitDx=0;exitDy=0;" edge="1" parent="WIyWlLk6GJQsqaUBKTNV-1" source="eBTDrFPib6VvDSLRsoKk-76" target="eBTDrFPib6VvDSLRsoKk-80">
          <mxGeometry relative="1" as="geometry" />
        </mxCell>
        <mxCell id="eBTDrFPib6VvDSLRsoKk-76" value="Signalisierung über&lt;br&gt;Status-LED" style="rounded=1;whiteSpace=wrap;html=1;" vertex="1" parent="WIyWlLk6GJQsqaUBKTNV-1">
          <mxGeometry x="1654" y="436" width="115" height="40" as="geometry" />
        </mxCell>
        <mxCell id="eBTDrFPib6VvDSLRsoKk-77" value="ja" style="edgeStyle=orthogonalEdgeStyle;rounded=0;orthogonalLoop=1;jettySize=auto;html=1;exitX=0.5;exitY=1;exitDx=0;exitDy=0;entryX=0.5;entryY=0;entryDx=0;entryDy=0;" edge="1" parent="WIyWlLk6GJQsqaUBKTNV-1" source="eBTDrFPib6VvDSLRsoKk-78" target="eBTDrFPib6VvDSLRsoKk-76">
          <mxGeometry relative="1" as="geometry" />
        </mxCell>
        <mxCell id="eBTDrFPib6VvDSLRsoKk-160" value="nein" style="edgeStyle=orthogonalEdgeStyle;rounded=0;orthogonalLoop=1;jettySize=auto;html=1;exitX=1;exitY=0.5;exitDx=0;exitDy=0;entryX=0;entryY=0.5;entryDx=0;entryDy=0;entryPerimeter=0;" edge="1" parent="WIyWlLk6GJQsqaUBKTNV-1" source="eBTDrFPib6VvDSLRsoKk-78" target="eBTDrFPib6VvDSLRsoKk-159">
          <mxGeometry relative="1" as="geometry" />
        </mxCell>
        <mxCell id="eBTDrFPib6VvDSLRsoKk-78" value="status =&lt;br&gt;error?" style="rhombus;whiteSpace=wrap;html=1;fillColor=#a20025;fontColor=#ffffff;strokeColor=#6F0000;" vertex="1" parent="WIyWlLk6GJQsqaUBKTNV-1">
          <mxGeometry x="1669" y="316" width="80" height="80" as="geometry" />
        </mxCell>
        <mxCell id="eBTDrFPib6VvDSLRsoKk-92" value="ja" style="edgeStyle=orthogonalEdgeStyle;rounded=0;orthogonalLoop=1;jettySize=auto;html=1;exitX=0.5;exitY=1;exitDx=0;exitDy=0;entryX=0.5;entryY=0;entryDx=0;entryDy=0;" edge="1" parent="WIyWlLk6GJQsqaUBKTNV-1" source="eBTDrFPib6VvDSLRsoKk-80" target="eBTDrFPib6VvDSLRsoKk-86">
          <mxGeometry relative="1" as="geometry" />
        </mxCell>
        <mxCell id="eBTDrFPib6VvDSLRsoKk-94" value="nein" style="edgeStyle=orthogonalEdgeStyle;rounded=0;orthogonalLoop=1;jettySize=auto;html=1;exitX=1;exitY=0.5;exitDx=0;exitDy=0;entryX=0;entryY=0.5;entryDx=0;entryDy=0;" edge="1" parent="WIyWlLk6GJQsqaUBKTNV-1" source="eBTDrFPib6VvDSLRsoKk-80" target="eBTDrFPib6VvDSLRsoKk-93">
          <mxGeometry relative="1" as="geometry" />
        </mxCell>
        <mxCell id="eBTDrFPib6VvDSLRsoKk-80" value="Errorcode =&lt;br&gt;2?" style="rhombus;whiteSpace=wrap;html=1;" vertex="1" parent="WIyWlLk6GJQsqaUBKTNV-1">
          <mxGeometry x="1669" y="550" width="92.5" height="90" as="geometry" />
        </mxCell>
        <mxCell id="eBTDrFPib6VvDSLRsoKk-82" value="Error 1: Keine Verbindung zum Slave&lt;br&gt;Error 2: Keine Verbindung zum Sensor&lt;br&gt;Error 3: Werte häufig falsch" style="rounded=0;whiteSpace=wrap;html=1;" vertex="1" parent="WIyWlLk6GJQsqaUBKTNV-1">
          <mxGeometry x="1820" y="420" width="220" height="60" as="geometry" />
        </mxCell>
        <mxCell id="eBTDrFPib6VvDSLRsoKk-85" style="edgeStyle=orthogonalEdgeStyle;rounded=0;orthogonalLoop=1;jettySize=auto;html=1;exitX=0.5;exitY=1;exitDx=0;exitDy=0;entryX=0.5;entryY=0;entryDx=0;entryDy=0;" edge="1" parent="WIyWlLk6GJQsqaUBKTNV-1" source="eBTDrFPib6VvDSLRsoKk-86" target="eBTDrFPib6VvDSLRsoKk-88">
          <mxGeometry relative="1" as="geometry" />
        </mxCell>
        <mxCell id="eBTDrFPib6VvDSLRsoKk-86" value="Senden des Fehlercodes 2" style="rounded=1;whiteSpace=wrap;html=1;" vertex="1" parent="WIyWlLk6GJQsqaUBKTNV-1">
          <mxGeometry x="1669" y="705" width="95" height="40" as="geometry" />
        </mxCell>
        <mxCell id="eBTDrFPib6VvDSLRsoKk-87" value="ja" style="edgeStyle=orthogonalEdgeStyle;rounded=0;orthogonalLoop=1;jettySize=auto;html=1;exitX=0.5;exitY=1;exitDx=0;exitDy=0;entryX=0.5;entryY=0;entryDx=0;entryDy=0;" edge="1" parent="WIyWlLk6GJQsqaUBKTNV-1" source="eBTDrFPib6VvDSLRsoKk-88" target="eBTDrFPib6VvDSLRsoKk-91">
          <mxGeometry relative="1" as="geometry" />
        </mxCell>
        <mxCell id="eBTDrFPib6VvDSLRsoKk-88" value="&amp;nbsp;erfolgreich?" style="rhombus;whiteSpace=wrap;html=1;" vertex="1" parent="WIyWlLk6GJQsqaUBKTNV-1">
          <mxGeometry x="1670.25" y="805" width="92.5" height="90" as="geometry" />
        </mxCell>
        <mxCell id="eBTDrFPib6VvDSLRsoKk-89" value="nein" style="edgeStyle=orthogonalEdgeStyle;rounded=0;orthogonalLoop=1;jettySize=auto;html=1;exitX=1;exitY=0.5;exitDx=0;exitDy=0;entryX=0;entryY=0.5;entryDx=0;entryDy=0;" edge="1" parent="WIyWlLk6GJQsqaUBKTNV-1" source="eBTDrFPib6VvDSLRsoKk-88" target="eBTDrFPib6VvDSLRsoKk-90">
          <mxGeometry x="0.1429" y="15" relative="1" as="geometry">
            <mxPoint x="1776.5" y="850" as="sourcePoint" />
            <mxPoint as="offset" />
          </mxGeometry>
        </mxCell>
        <mxCell id="eBTDrFPib6VvDSLRsoKk-90" value="status: error 1" style="rounded=1;whiteSpace=wrap;html=1;fillColor=#a20025;fontColor=#ffffff;strokeColor=#6F0000;" vertex="1" parent="WIyWlLk6GJQsqaUBKTNV-1">
          <mxGeometry x="1846.5" y="832.5" width="100" height="35" as="geometry" />
        </mxCell>
        <mxCell id="eBTDrFPib6VvDSLRsoKk-91" value="ENDE" style="rounded=1;whiteSpace=wrap;html=1;fillColor=#6a00ff;fontColor=#ffffff;strokeColor=#3700CC;" vertex="1" parent="WIyWlLk6GJQsqaUBKTNV-1">
          <mxGeometry x="1669" y="935" width="95" height="40" as="geometry" />
        </mxCell>
        <mxCell id="eBTDrFPib6VvDSLRsoKk-93" value="ENDE" style="rounded=1;whiteSpace=wrap;html=1;fillColor=#6a00ff;fontColor=#ffffff;strokeColor=#3700CC;" vertex="1" parent="WIyWlLk6GJQsqaUBKTNV-1">
          <mxGeometry x="1840" y="575" width="95" height="40" as="geometry" />
        </mxCell>
        <mxCell id="eBTDrFPib6VvDSLRsoKk-97" value="status: ready" style="rounded=1;whiteSpace=wrap;html=1;" vertex="1" parent="WIyWlLk6GJQsqaUBKTNV-1">
          <mxGeometry x="898.75" y="1455" width="95" height="40" as="geometry" />
        </mxCell>
        <mxCell id="eBTDrFPib6VvDSLRsoKk-100" value="" style="verticalLabelPosition=bottom;verticalAlign=top;html=1;shape=mxgraph.flowchart.on-page_reference;fillColor=#fa6800;fontColor=#000000;strokeColor=#C73500;" vertex="1" parent="WIyWlLk6GJQsqaUBKTNV-1">
          <mxGeometry x="810" y="256" width="40" height="44" as="geometry" />
        </mxCell>
        <mxCell id="eBTDrFPib6VvDSLRsoKk-102" value="Sprung nach" style="edgeStyle=orthogonalEdgeStyle;rounded=0;orthogonalLoop=1;jettySize=auto;html=1;exitX=0.5;exitY=1;exitDx=0;exitDy=0;entryX=0.5;entryY=0;entryDx=0;entryDy=0;entryPerimeter=0;" edge="1" parent="WIyWlLk6GJQsqaUBKTNV-1" target="eBTDrFPib6VvDSLRsoKk-103">
          <mxGeometry relative="1" as="geometry">
            <mxPoint x="1097.5" y="750" as="sourcePoint" />
          </mxGeometry>
        </mxCell>
        <mxCell id="eBTDrFPib6VvDSLRsoKk-103" value="" style="verticalLabelPosition=bottom;verticalAlign=top;html=1;shape=mxgraph.flowchart.on-page_reference;fillColor=#fa6800;fontColor=#000000;strokeColor=#C73500;" vertex="1" parent="WIyWlLk6GJQsqaUBKTNV-1">
          <mxGeometry x="1077.5" y="783" width="40" height="44" as="geometry" />
        </mxCell>
        <mxCell id="eBTDrFPib6VvDSLRsoKk-104" value="Sprung nach" style="edgeStyle=orthogonalEdgeStyle;rounded=0;orthogonalLoop=1;jettySize=auto;html=1;exitX=0.5;exitY=1;exitDx=0;exitDy=0;entryX=0.5;entryY=0;entryDx=0;entryDy=0;entryPerimeter=0;" edge="1" parent="WIyWlLk6GJQsqaUBKTNV-1" target="eBTDrFPib6VvDSLRsoKk-105">
          <mxGeometry relative="1" as="geometry">
            <mxPoint x="1130" y="937.5" as="sourcePoint" />
          </mxGeometry>
        </mxCell>
        <mxCell id="eBTDrFPib6VvDSLRsoKk-105" value="" style="verticalLabelPosition=bottom;verticalAlign=top;html=1;shape=mxgraph.flowchart.on-page_reference;fillColor=#fa6800;fontColor=#000000;strokeColor=#C73500;" vertex="1" parent="WIyWlLk6GJQsqaUBKTNV-1">
          <mxGeometry x="1110" y="970.5" width="40" height="44" as="geometry" />
        </mxCell>
        <mxCell id="eBTDrFPib6VvDSLRsoKk-106" value="Sprung nach" style="edgeStyle=orthogonalEdgeStyle;rounded=0;orthogonalLoop=1;jettySize=auto;html=1;exitX=0.5;exitY=1;exitDx=0;exitDy=0;entryX=0.5;entryY=0;entryDx=0;entryDy=0;entryPerimeter=0;" edge="1" parent="WIyWlLk6GJQsqaUBKTNV-1" target="eBTDrFPib6VvDSLRsoKk-107">
          <mxGeometry relative="1" as="geometry">
            <mxPoint x="1127.5" y="1222.5" as="sourcePoint" />
          </mxGeometry>
        </mxCell>
        <mxCell id="eBTDrFPib6VvDSLRsoKk-107" value="" style="verticalLabelPosition=bottom;verticalAlign=top;html=1;shape=mxgraph.flowchart.on-page_reference;fillColor=#fa6800;fontColor=#000000;strokeColor=#C73500;" vertex="1" parent="WIyWlLk6GJQsqaUBKTNV-1">
          <mxGeometry x="1107.5" y="1255.5" width="40" height="44" as="geometry" />
        </mxCell>
        <mxCell id="eBTDrFPib6VvDSLRsoKk-108" value="Sprung nach" style="edgeStyle=orthogonalEdgeStyle;rounded=0;orthogonalLoop=1;jettySize=auto;html=1;exitX=0.5;exitY=1;exitDx=0;exitDy=0;entryX=0.5;entryY=0;entryDx=0;entryDy=0;entryPerimeter=0;" edge="1" parent="WIyWlLk6GJQsqaUBKTNV-1" target="eBTDrFPib6VvDSLRsoKk-109">
          <mxGeometry relative="1" as="geometry">
            <mxPoint x="946.25" y="1495" as="sourcePoint" />
          </mxGeometry>
        </mxCell>
        <mxCell id="eBTDrFPib6VvDSLRsoKk-109" value="" style="verticalLabelPosition=bottom;verticalAlign=top;html=1;shape=mxgraph.flowchart.on-page_reference;fillColor=#fa6800;fontColor=#000000;strokeColor=#C73500;" vertex="1" parent="WIyWlLk6GJQsqaUBKTNV-1">
          <mxGeometry x="926.25" y="1528" width="40" height="44" as="geometry" />
        </mxCell>
        <mxCell id="eBTDrFPib6VvDSLRsoKk-110" value="Sprung nach" style="edgeStyle=orthogonalEdgeStyle;rounded=0;orthogonalLoop=1;jettySize=auto;html=1;exitX=0.5;exitY=1;exitDx=0;exitDy=0;entryX=0.5;entryY=0;entryDx=0;entryDy=0;entryPerimeter=0;" edge="1" parent="WIyWlLk6GJQsqaUBKTNV-1" target="eBTDrFPib6VvDSLRsoKk-111">
          <mxGeometry relative="1" as="geometry">
            <mxPoint x="1516.25" y="882.5" as="sourcePoint" />
          </mxGeometry>
        </mxCell>
        <mxCell id="eBTDrFPib6VvDSLRsoKk-111" value="" style="verticalLabelPosition=bottom;verticalAlign=top;html=1;shape=mxgraph.flowchart.on-page_reference;fillColor=#fa6800;fontColor=#000000;strokeColor=#C73500;" vertex="1" parent="WIyWlLk6GJQsqaUBKTNV-1">
          <mxGeometry x="1496.25" y="915.5" width="40" height="44" as="geometry" />
        </mxCell>
        <mxCell id="eBTDrFPib6VvDSLRsoKk-112" value="Sprung nach" style="edgeStyle=orthogonalEdgeStyle;rounded=0;orthogonalLoop=1;jettySize=auto;html=1;exitX=0.5;exitY=1;exitDx=0;exitDy=0;entryX=0.5;entryY=0;entryDx=0;entryDy=0;entryPerimeter=0;" edge="1" parent="WIyWlLk6GJQsqaUBKTNV-1" target="eBTDrFPib6VvDSLRsoKk-113">
          <mxGeometry relative="1" as="geometry">
            <mxPoint x="1896.5" y="867.5" as="sourcePoint" />
          </mxGeometry>
        </mxCell>
        <mxCell id="eBTDrFPib6VvDSLRsoKk-113" value="" style="verticalLabelPosition=bottom;verticalAlign=top;html=1;shape=mxgraph.flowchart.on-page_reference;fillColor=#fa6800;fontColor=#000000;strokeColor=#C73500;" vertex="1" parent="WIyWlLk6GJQsqaUBKTNV-1">
          <mxGeometry x="1876.5" y="900.5" width="40" height="44" as="geometry" />
        </mxCell>
        <mxCell id="eBTDrFPib6VvDSLRsoKk-117" style="edgeStyle=orthogonalEdgeStyle;rounded=0;orthogonalLoop=1;jettySize=auto;html=1;exitX=0.5;exitY=1;exitDx=0;exitDy=0;" edge="1" parent="WIyWlLk6GJQsqaUBKTNV-1" source="eBTDrFPib6VvDSLRsoKk-115" target="eBTDrFPib6VvDSLRsoKk-116">
          <mxGeometry relative="1" as="geometry" />
        </mxCell>
        <mxCell id="eBTDrFPib6VvDSLRsoKk-115" value="Timer ISR" style="rounded=1;whiteSpace=wrap;html=1;fillColor=#1ba1e2;fontColor=#ffffff;strokeColor=#006EAF;" vertex="1" parent="WIyWlLk6GJQsqaUBKTNV-1">
          <mxGeometry x="525" y="1030.25" width="95" height="40" as="geometry" />
        </mxCell>
        <mxCell id="eBTDrFPib6VvDSLRsoKk-157" style="edgeStyle=orthogonalEdgeStyle;rounded=0;orthogonalLoop=1;jettySize=auto;html=1;exitX=0.5;exitY=1;exitDx=0;exitDy=0;entryX=0.5;entryY=0;entryDx=0;entryDy=0;" edge="1" parent="WIyWlLk6GJQsqaUBKTNV-1" source="eBTDrFPib6VvDSLRsoKk-116" target="eBTDrFPib6VvDSLRsoKk-156">
          <mxGeometry relative="1" as="geometry" />
        </mxCell>
        <mxCell id="eBTDrFPib6VvDSLRsoKk-116" value="status: error 3" style="rounded=1;whiteSpace=wrap;html=1;fillColor=#a20025;fontColor=#ffffff;strokeColor=#6F0000;" vertex="1" parent="WIyWlLk6GJQsqaUBKTNV-1">
          <mxGeometry x="525" y="1102.75" width="95" height="40" as="geometry" />
        </mxCell>
        <mxCell id="eBTDrFPib6VvDSLRsoKk-118" value="Sprung nach" style="edgeStyle=orthogonalEdgeStyle;rounded=0;orthogonalLoop=1;jettySize=auto;html=1;exitX=0.5;exitY=1;exitDx=0;exitDy=0;entryX=0.5;entryY=0;entryDx=0;entryDy=0;entryPerimeter=0;" edge="1" parent="WIyWlLk6GJQsqaUBKTNV-1" target="eBTDrFPib6VvDSLRsoKk-119">
          <mxGeometry relative="1" as="geometry">
            <mxPoint x="572.5" y="1247" as="sourcePoint" />
          </mxGeometry>
        </mxCell>
        <mxCell id="eBTDrFPib6VvDSLRsoKk-119" value="" style="verticalLabelPosition=bottom;verticalAlign=top;html=1;shape=mxgraph.flowchart.on-page_reference;fillColor=#fa6800;fontColor=#000000;strokeColor=#C73500;" vertex="1" parent="WIyWlLk6GJQsqaUBKTNV-1">
          <mxGeometry x="552.5" y="1280" width="40" height="44" as="geometry" />
        </mxCell>
        <mxCell id="eBTDrFPib6VvDSLRsoKk-122" style="edgeStyle=orthogonalEdgeStyle;rounded=0;orthogonalLoop=1;jettySize=auto;html=1;exitX=0.5;exitY=1;exitDx=0;exitDy=0;entryX=0.5;entryY=0;entryDx=0;entryDy=0;" edge="1" parent="WIyWlLk6GJQsqaUBKTNV-1" source="eBTDrFPib6VvDSLRsoKk-120" target="eBTDrFPib6VvDSLRsoKk-121">
          <mxGeometry relative="1" as="geometry" />
        </mxCell>
        <mxCell id="eBTDrFPib6VvDSLRsoKk-120" value="GPIO ISR" style="rounded=1;whiteSpace=wrap;html=1;fillColor=#0050ef;fontColor=#ffffff;strokeColor=#001DBC;" vertex="1" parent="WIyWlLk6GJQsqaUBKTNV-1">
          <mxGeometry x="170" y="695.5" width="95" height="40" as="geometry" />
        </mxCell>
        <mxCell id="eBTDrFPib6VvDSLRsoKk-124" value="ja" style="edgeStyle=orthogonalEdgeStyle;rounded=0;orthogonalLoop=1;jettySize=auto;html=1;exitX=1;exitY=0.5;exitDx=0;exitDy=0;entryX=0;entryY=0.5;entryDx=0;entryDy=0;" edge="1" parent="WIyWlLk6GJQsqaUBKTNV-1" source="eBTDrFPib6VvDSLRsoKk-121" target="eBTDrFPib6VvDSLRsoKk-123">
          <mxGeometry relative="1" as="geometry" />
        </mxCell>
        <mxCell id="eBTDrFPib6VvDSLRsoKk-128" value="nein" style="edgeStyle=orthogonalEdgeStyle;rounded=0;orthogonalLoop=1;jettySize=auto;html=1;exitX=0.5;exitY=1;exitDx=0;exitDy=0;entryX=0.5;entryY=0;entryDx=0;entryDy=0;" edge="1" parent="WIyWlLk6GJQsqaUBKTNV-1" source="eBTDrFPib6VvDSLRsoKk-121" target="eBTDrFPib6VvDSLRsoKk-126">
          <mxGeometry relative="1" as="geometry" />
        </mxCell>
        <mxCell id="eBTDrFPib6VvDSLRsoKk-121" value="steigende Flanke?" style="rhombus;whiteSpace=wrap;html=1;" vertex="1" parent="WIyWlLk6GJQsqaUBKTNV-1">
          <mxGeometry x="170" y="780" width="80" height="80" as="geometry" />
        </mxCell>
        <mxCell id="eBTDrFPib6VvDSLRsoKk-123" value="Timer auf 0 setzen" style="rounded=1;whiteSpace=wrap;html=1;" vertex="1" parent="WIyWlLk6GJQsqaUBKTNV-1">
          <mxGeometry x="340" y="800" width="95" height="40" as="geometry" />
        </mxCell>
        <mxCell id="eBTDrFPib6VvDSLRsoKk-125" value="ja" style="edgeStyle=orthogonalEdgeStyle;rounded=0;orthogonalLoop=1;jettySize=auto;html=1;exitX=0.5;exitY=1;exitDx=0;exitDy=0;entryX=0.5;entryY=0;entryDx=0;entryDy=0;" edge="1" parent="WIyWlLk6GJQsqaUBKTNV-1" source="eBTDrFPib6VvDSLRsoKk-126" target="eBTDrFPib6VvDSLRsoKk-127">
          <mxGeometry relative="1" as="geometry" />
        </mxCell>
        <mxCell id="eBTDrFPib6VvDSLRsoKk-126" value="fallende Flanke?" style="rhombus;whiteSpace=wrap;html=1;" vertex="1" parent="WIyWlLk6GJQsqaUBKTNV-1">
          <mxGeometry x="170" y="900.5" width="80" height="80" as="geometry" />
        </mxCell>
        <mxCell id="eBTDrFPib6VvDSLRsoKk-131" style="edgeStyle=orthogonalEdgeStyle;rounded=0;orthogonalLoop=1;jettySize=auto;html=1;exitX=0.5;exitY=1;exitDx=0;exitDy=0;entryX=0.5;entryY=0;entryDx=0;entryDy=0;" edge="1" parent="WIyWlLk6GJQsqaUBKTNV-1" source="eBTDrFPib6VvDSLRsoKk-127" target="eBTDrFPib6VvDSLRsoKk-130">
          <mxGeometry relative="1" as="geometry" />
        </mxCell>
        <mxCell id="eBTDrFPib6VvDSLRsoKk-127" value="Timer lesen" style="rounded=1;whiteSpace=wrap;html=1;" vertex="1" parent="WIyWlLk6GJQsqaUBKTNV-1">
          <mxGeometry x="155" y="1040" width="95" height="40" as="geometry" />
        </mxCell>
        <mxCell id="eBTDrFPib6VvDSLRsoKk-129" value="Zeit im Puffer abspeichern" style="rounded=1;whiteSpace=wrap;html=1;fillColor=#647687;fontColor=#ffffff;strokeColor=#314354;" vertex="1" parent="WIyWlLk6GJQsqaUBKTNV-1">
          <mxGeometry x="300" y="1140" width="95" height="40" as="geometry" />
        </mxCell>
        <mxCell id="eBTDrFPib6VvDSLRsoKk-132" value="ja" style="edgeStyle=orthogonalEdgeStyle;rounded=0;orthogonalLoop=1;jettySize=auto;html=1;exitX=1;exitY=0.5;exitDx=0;exitDy=0;entryX=0;entryY=0.5;entryDx=0;entryDy=0;" edge="1" parent="WIyWlLk6GJQsqaUBKTNV-1" source="eBTDrFPib6VvDSLRsoKk-130" target="eBTDrFPib6VvDSLRsoKk-129">
          <mxGeometry relative="1" as="geometry" />
        </mxCell>
        <mxCell id="eBTDrFPib6VvDSLRsoKk-130" value="Bit Nr. &lt;br&gt;&amp;lt; 40?" style="rhombus;whiteSpace=wrap;html=1;" vertex="1" parent="WIyWlLk6GJQsqaUBKTNV-1">
          <mxGeometry x="162.5" y="1120" width="80" height="80" as="geometry" />
        </mxCell>
        <mxCell id="eBTDrFPib6VvDSLRsoKk-133" value="nein" style="edgeStyle=orthogonalEdgeStyle;rounded=0;orthogonalLoop=1;jettySize=auto;html=1;exitX=0.5;exitY=1;exitDx=0;exitDy=0;entryX=0.5;entryY=0;entryDx=0;entryDy=0;" edge="1" parent="WIyWlLk6GJQsqaUBKTNV-1" target="eBTDrFPib6VvDSLRsoKk-136" source="eBTDrFPib6VvDSLRsoKk-130">
          <mxGeometry relative="1" as="geometry">
            <mxPoint x="200.5" y="1210" as="sourcePoint" />
          </mxGeometry>
        </mxCell>
        <mxCell id="eBTDrFPib6VvDSLRsoKk-138" style="edgeStyle=orthogonalEdgeStyle;rounded=0;orthogonalLoop=1;jettySize=auto;html=1;exitX=0.5;exitY=1;exitDx=0;exitDy=0;entryX=0.5;entryY=0;entryDx=0;entryDy=0;" edge="1" parent="WIyWlLk6GJQsqaUBKTNV-1" source="eBTDrFPib6VvDSLRsoKk-134" target="eBTDrFPib6VvDSLRsoKk-137">
          <mxGeometry relative="1" as="geometry">
            <mxPoint x="347.5" y="1343" as="targetPoint" />
          </mxGeometry>
        </mxCell>
        <mxCell id="eBTDrFPib6VvDSLRsoKk-134" value="Zeit im Puffer abspeichern" style="rounded=1;whiteSpace=wrap;html=1;fillColor=#647687;fontColor=#ffffff;strokeColor=#314354;" vertex="1" parent="WIyWlLk6GJQsqaUBKTNV-1">
          <mxGeometry x="297.5" y="1270" width="95" height="40" as="geometry" />
        </mxCell>
        <mxCell id="eBTDrFPib6VvDSLRsoKk-135" value="ja" style="edgeStyle=orthogonalEdgeStyle;rounded=0;orthogonalLoop=1;jettySize=auto;html=1;exitX=1;exitY=0.5;exitDx=0;exitDy=0;entryX=0;entryY=0.5;entryDx=0;entryDy=0;" edge="1" parent="WIyWlLk6GJQsqaUBKTNV-1" source="eBTDrFPib6VvDSLRsoKk-136" target="eBTDrFPib6VvDSLRsoKk-134">
          <mxGeometry relative="1" as="geometry" />
        </mxCell>
        <mxCell id="eBTDrFPib6VvDSLRsoKk-144" value="nein" style="edgeStyle=orthogonalEdgeStyle;rounded=0;orthogonalLoop=1;jettySize=auto;html=1;exitX=0.5;exitY=1;exitDx=0;exitDy=0;entryX=0.5;entryY=0;entryDx=0;entryDy=0;" edge="1" parent="WIyWlLk6GJQsqaUBKTNV-1" source="eBTDrFPib6VvDSLRsoKk-136" target="eBTDrFPib6VvDSLRsoKk-142">
          <mxGeometry relative="1" as="geometry" />
        </mxCell>
        <mxCell id="eBTDrFPib6VvDSLRsoKk-136" value="Bit nr. 40?" style="rhombus;whiteSpace=wrap;html=1;" vertex="1" parent="WIyWlLk6GJQsqaUBKTNV-1">
          <mxGeometry x="160" y="1250" width="80" height="80" as="geometry" />
        </mxCell>
        <mxCell id="eBTDrFPib6VvDSLRsoKk-140" style="edgeStyle=orthogonalEdgeStyle;rounded=0;orthogonalLoop=1;jettySize=auto;html=1;exitX=0.5;exitY=1;exitDx=0;exitDy=0;entryX=0.5;entryY=0;entryDx=0;entryDy=0;" edge="1" parent="WIyWlLk6GJQsqaUBKTNV-1" source="eBTDrFPib6VvDSLRsoKk-137" target="eBTDrFPib6VvDSLRsoKk-139">
          <mxGeometry relative="1" as="geometry">
            <mxPoint x="347.5" y="1390" as="sourcePoint" />
          </mxGeometry>
        </mxCell>
        <mxCell id="eBTDrFPib6VvDSLRsoKk-137" value="Timmer stoppen&amp;nbsp;" style="rounded=1;whiteSpace=wrap;html=1;fillColor=#1ba1e2;fontColor=#ffffff;strokeColor=#006EAF;" vertex="1" parent="WIyWlLk6GJQsqaUBKTNV-1">
          <mxGeometry x="287.5" y="1341.5" width="120" height="47" as="geometry" />
        </mxCell>
        <mxCell id="eBTDrFPib6VvDSLRsoKk-175" style="edgeStyle=orthogonalEdgeStyle;rounded=0;orthogonalLoop=1;jettySize=auto;html=1;exitX=0.5;exitY=1;exitDx=0;exitDy=0;entryX=0.5;entryY=0;entryDx=0;entryDy=0;" edge="1" parent="WIyWlLk6GJQsqaUBKTNV-1" source="eBTDrFPib6VvDSLRsoKk-139" target="eBTDrFPib6VvDSLRsoKk-174">
          <mxGeometry relative="1" as="geometry" />
        </mxCell>
        <mxCell id="eBTDrFPib6VvDSLRsoKk-139" value="status: finished" style="rounded=1;whiteSpace=wrap;html=1;fillColor=#6d8764;fontColor=#ffffff;strokeColor=#3A5431;" vertex="1" parent="WIyWlLk6GJQsqaUBKTNV-1">
          <mxGeometry x="300" y="1420" width="95" height="40" as="geometry" />
        </mxCell>
        <mxCell id="eBTDrFPib6VvDSLRsoKk-141" style="edgeStyle=orthogonalEdgeStyle;rounded=0;orthogonalLoop=1;jettySize=auto;html=1;exitX=0.5;exitY=1;exitDx=0;exitDy=0;entryX=0.5;entryY=0;entryDx=0;entryDy=0;" edge="1" parent="WIyWlLk6GJQsqaUBKTNV-1" source="eBTDrFPib6VvDSLRsoKk-142" target="eBTDrFPib6VvDSLRsoKk-143">
          <mxGeometry relative="1" as="geometry" />
        </mxCell>
        <mxCell id="eBTDrFPib6VvDSLRsoKk-142" value="Timmer stoppen (keine TIM-Interrupts möglich)" style="rounded=1;whiteSpace=wrap;html=1;fillColor=#1ba1e2;fontColor=#ffffff;strokeColor=#006EAF;" vertex="1" parent="WIyWlLk6GJQsqaUBKTNV-1">
          <mxGeometry x="140" y="1370" width="120" height="47" as="geometry" />
        </mxCell>
        <mxCell id="eBTDrFPib6VvDSLRsoKk-143" value="status: invalide" style="rounded=1;whiteSpace=wrap;html=1;fillColor=#f0a30a;fontColor=#000000;strokeColor=#BD7000;" vertex="1" parent="WIyWlLk6GJQsqaUBKTNV-1">
          <mxGeometry x="152.5" y="1460" width="95" height="40" as="geometry" />
        </mxCell>
        <mxCell id="eBTDrFPib6VvDSLRsoKk-146" value="Sprung nach" style="edgeStyle=orthogonalEdgeStyle;rounded=0;orthogonalLoop=1;jettySize=auto;html=1;exitX=0.5;exitY=1;exitDx=0;exitDy=0;entryX=0.5;entryY=0;entryDx=0;entryDy=0;entryPerimeter=0;" edge="1" parent="WIyWlLk6GJQsqaUBKTNV-1" target="eBTDrFPib6VvDSLRsoKk-147">
          <mxGeometry relative="1" as="geometry">
            <mxPoint x="340" y="1520" as="sourcePoint" />
          </mxGeometry>
        </mxCell>
        <mxCell id="eBTDrFPib6VvDSLRsoKk-147" value="" style="verticalLabelPosition=bottom;verticalAlign=top;html=1;shape=mxgraph.flowchart.on-page_reference;fillColor=#fa6800;fontColor=#000000;strokeColor=#C73500;" vertex="1" parent="WIyWlLk6GJQsqaUBKTNV-1">
          <mxGeometry x="320" y="1553" width="40" height="44" as="geometry" />
        </mxCell>
        <mxCell id="eBTDrFPib6VvDSLRsoKk-148" value="Sprung nach" style="edgeStyle=orthogonalEdgeStyle;rounded=0;orthogonalLoop=1;jettySize=auto;html=1;exitX=0.5;exitY=1;exitDx=0;exitDy=0;entryX=0.5;entryY=0;entryDx=0;entryDy=0;entryPerimeter=0;" edge="1" parent="WIyWlLk6GJQsqaUBKTNV-1" target="eBTDrFPib6VvDSLRsoKk-149">
          <mxGeometry relative="1" as="geometry">
            <mxPoint x="195" y="1500" as="sourcePoint" />
          </mxGeometry>
        </mxCell>
        <mxCell id="eBTDrFPib6VvDSLRsoKk-149" value="" style="verticalLabelPosition=bottom;verticalAlign=top;html=1;shape=mxgraph.flowchart.on-page_reference;fillColor=#fa6800;fontColor=#000000;strokeColor=#C73500;" vertex="1" parent="WIyWlLk6GJQsqaUBKTNV-1">
          <mxGeometry x="175" y="1533" width="40" height="44" as="geometry" />
        </mxCell>
        <mxCell id="eBTDrFPib6VvDSLRsoKk-153" style="edgeStyle=orthogonalEdgeStyle;rounded=0;orthogonalLoop=1;jettySize=auto;html=1;exitX=0.5;exitY=1;exitDx=0;exitDy=0;entryX=0.5;entryY=0;entryDx=0;entryDy=0;" edge="1" parent="WIyWlLk6GJQsqaUBKTNV-1" source="eBTDrFPib6VvDSLRsoKk-150" target="eBTDrFPib6VvDSLRsoKk-152">
          <mxGeometry relative="1" as="geometry" />
        </mxCell>
        <mxCell id="eBTDrFPib6VvDSLRsoKk-150" value="2 µs warten" style="rounded=1;whiteSpace=wrap;html=1;" vertex="1" parent="WIyWlLk6GJQsqaUBKTNV-1">
          <mxGeometry x="600" y="720" width="95" height="40" as="geometry" />
        </mxCell>
        <mxCell id="eBTDrFPib6VvDSLRsoKk-155" style="edgeStyle=orthogonalEdgeStyle;rounded=0;orthogonalLoop=1;jettySize=auto;html=1;exitX=0.5;exitY=1;exitDx=0;exitDy=0;entryX=0.5;entryY=0;entryDx=0;entryDy=0;" edge="1" parent="WIyWlLk6GJQsqaUBKTNV-1" source="eBTDrFPib6VvDSLRsoKk-152" target="eBTDrFPib6VvDSLRsoKk-154">
          <mxGeometry relative="1" as="geometry" />
        </mxCell>
        <mxCell id="eBTDrFPib6VvDSLRsoKk-152" value="Timer starten" style="rounded=1;whiteSpace=wrap;html=1;fillColor=#1ba1e2;fontColor=#ffffff;strokeColor=#006EAF;" vertex="1" parent="WIyWlLk6GJQsqaUBKTNV-1">
          <mxGeometry x="597.5" y="785.5" width="95" height="40" as="geometry" />
        </mxCell>
        <mxCell id="eBTDrFPib6VvDSLRsoKk-154" value="GPIO Interrupt aktivieren" style="rounded=1;whiteSpace=wrap;html=1;fillColor=#0050ef;fontColor=#ffffff;strokeColor=#001DBC;" vertex="1" parent="WIyWlLk6GJQsqaUBKTNV-1">
          <mxGeometry x="597.5" y="860" width="95" height="40" as="geometry" />
        </mxCell>
        <mxCell id="eBTDrFPib6VvDSLRsoKk-156" value="Timmer stoppen&amp;nbsp;" style="rounded=1;whiteSpace=wrap;html=1;fillColor=#1ba1e2;fontColor=#ffffff;strokeColor=#006EAF;" vertex="1" parent="WIyWlLk6GJQsqaUBKTNV-1">
          <mxGeometry x="512.5" y="1200" width="120" height="47" as="geometry" />
        </mxCell>
        <mxCell id="eBTDrFPib6VvDSLRsoKk-159" value="" style="verticalLabelPosition=bottom;verticalAlign=top;html=1;shape=mxgraph.flowchart.on-page_reference;fillColor=#fa6800;fontColor=#000000;strokeColor=#C73500;" vertex="1" parent="WIyWlLk6GJQsqaUBKTNV-1">
          <mxGeometry x="1800" y="333" width="40" height="44" as="geometry" />
        </mxCell>
        <mxCell id="eBTDrFPib6VvDSLRsoKk-161" style="edgeStyle=orthogonalEdgeStyle;rounded=0;orthogonalLoop=1;jettySize=auto;html=1;exitX=0.5;exitY=1;exitDx=0;exitDy=0;entryX=0.5;entryY=0;entryDx=0;entryDy=0;" edge="1" parent="WIyWlLk6GJQsqaUBKTNV-1" source="eBTDrFPib6VvDSLRsoKk-162" target="eBTDrFPib6VvDSLRsoKk-163">
          <mxGeometry relative="1" as="geometry" />
        </mxCell>
        <mxCell id="eBTDrFPib6VvDSLRsoKk-162" value="Werte zurücksetzen" style="rounded=1;whiteSpace=wrap;html=1;" vertex="1" parent="WIyWlLk6GJQsqaUBKTNV-1">
          <mxGeometry x="1350" y="1120" width="95" height="40" as="geometry" />
        </mxCell>
        <mxCell id="eBTDrFPib6VvDSLRsoKk-163" value="status: ready" style="rounded=1;whiteSpace=wrap;html=1;" vertex="1" parent="WIyWlLk6GJQsqaUBKTNV-1">
          <mxGeometry x="1350" y="1210" width="95" height="40" as="geometry" />
        </mxCell>
        <mxCell id="eBTDrFPib6VvDSLRsoKk-164" value="Sprung nach" style="edgeStyle=orthogonalEdgeStyle;rounded=0;orthogonalLoop=1;jettySize=auto;html=1;exitX=0.5;exitY=1;exitDx=0;exitDy=0;entryX=0.5;entryY=0;entryDx=0;entryDy=0;entryPerimeter=0;" edge="1" parent="WIyWlLk6GJQsqaUBKTNV-1" target="eBTDrFPib6VvDSLRsoKk-165">
          <mxGeometry relative="1" as="geometry">
            <mxPoint x="1397.5" y="1250" as="sourcePoint" />
          </mxGeometry>
        </mxCell>
        <mxCell id="eBTDrFPib6VvDSLRsoKk-165" value="" style="verticalLabelPosition=bottom;verticalAlign=top;html=1;shape=mxgraph.flowchart.on-page_reference;fillColor=#fa6800;fontColor=#000000;strokeColor=#C73500;" vertex="1" parent="WIyWlLk6GJQsqaUBKTNV-1">
          <mxGeometry x="1377.5" y="1283" width="40" height="44" as="geometry" />
        </mxCell>
        <mxCell id="eBTDrFPib6VvDSLRsoKk-167" value="" style="edgeStyle=orthogonalEdgeStyle;rounded=0;orthogonalLoop=1;jettySize=auto;html=1;exitX=0.5;exitY=1;exitDx=0;exitDy=0;entryX=0.5;entryY=0;entryDx=0;entryDy=0;" edge="1" parent="WIyWlLk6GJQsqaUBKTNV-1" source="eBTDrFPib6VvDSLRsoKk-20" target="eBTDrFPib6VvDSLRsoKk-166">
          <mxGeometry relative="1" as="geometry">
            <mxPoint x="965" y="491" as="sourcePoint" />
            <mxPoint x="956" y="690" as="targetPoint" />
          </mxGeometry>
        </mxCell>
        <mxCell id="eBTDrFPib6VvDSLRsoKk-166" value="abgespeicherte Zeitwerte aus Puffer in 1 oder 0 umrechnen" style="rounded=1;whiteSpace=wrap;html=1;fillColor=#647687;fontColor=#ffffff;strokeColor=#314354;" vertex="1" parent="WIyWlLk6GJQsqaUBKTNV-1">
          <mxGeometry x="893.75" y="520" width="142.5" height="60" as="geometry" />
        </mxCell>
        <mxCell id="eBTDrFPib6VvDSLRsoKk-169" value="" style="edgeStyle=orthogonalEdgeStyle;rounded=0;orthogonalLoop=1;jettySize=auto;html=1;exitX=0.5;exitY=1;exitDx=0;exitDy=0;entryX=0.5;entryY=0;entryDx=0;entryDy=0;" edge="1" parent="WIyWlLk6GJQsqaUBKTNV-1" source="eBTDrFPib6VvDSLRsoKk-166" target="eBTDrFPib6VvDSLRsoKk-168">
          <mxGeometry relative="1" as="geometry">
            <mxPoint x="965" y="580" as="sourcePoint" />
            <mxPoint x="956" y="690" as="targetPoint" />
          </mxGeometry>
        </mxCell>
        <mxCell id="eBTDrFPib6VvDSLRsoKk-171" value="ja" style="edgeStyle=orthogonalEdgeStyle;rounded=0;orthogonalLoop=1;jettySize=auto;html=1;exitX=1;exitY=0.5;exitDx=0;exitDy=0;entryX=0;entryY=0.5;entryDx=0;entryDy=0;" edge="1" parent="WIyWlLk6GJQsqaUBKTNV-1" source="eBTDrFPib6VvDSLRsoKk-168" target="eBTDrFPib6VvDSLRsoKk-170">
          <mxGeometry relative="1" as="geometry" />
        </mxCell>
        <mxCell id="eBTDrFPib6VvDSLRsoKk-168" value="Zeitwerte unter- /überschreiten zulässige Grenze?" style="rhombus;whiteSpace=wrap;html=1;" vertex="1" parent="WIyWlLk6GJQsqaUBKTNV-1">
          <mxGeometry x="917.5" y="590" width="162.5" height="90" as="geometry" />
        </mxCell>
        <mxCell id="eBTDrFPib6VvDSLRsoKk-170" value="status: invalid" style="rounded=1;whiteSpace=wrap;html=1;fillColor=#f0a30a;fontColor=#000000;strokeColor=#BD7000;" vertex="1" parent="WIyWlLk6GJQsqaUBKTNV-1">
          <mxGeometry x="1110" y="610" width="95" height="40" as="geometry" />
        </mxCell>
        <mxCell id="eBTDrFPib6VvDSLRsoKk-172" value="Sprung nach" style="edgeStyle=orthogonalEdgeStyle;rounded=0;orthogonalLoop=1;jettySize=auto;html=1;exitX=0.5;exitY=1;exitDx=0;exitDy=0;entryX=0.5;entryY=0;entryDx=0;entryDy=0;entryPerimeter=0;" edge="1" parent="WIyWlLk6GJQsqaUBKTNV-1" target="eBTDrFPib6VvDSLRsoKk-173">
          <mxGeometry relative="1" as="geometry">
            <mxPoint x="1170" y="650" as="sourcePoint" />
          </mxGeometry>
        </mxCell>
        <mxCell id="eBTDrFPib6VvDSLRsoKk-173" value="" style="verticalLabelPosition=bottom;verticalAlign=top;html=1;shape=mxgraph.flowchart.on-page_reference;fillColor=#fa6800;fontColor=#000000;strokeColor=#C73500;" vertex="1" parent="WIyWlLk6GJQsqaUBKTNV-1">
          <mxGeometry x="1150" y="683" width="40" height="44" as="geometry" />
        </mxCell>
        <mxCell id="eBTDrFPib6VvDSLRsoKk-174" value="invalid-Zähler auf 0 setzen" style="rounded=1;whiteSpace=wrap;html=1;glass=0;shadow=0;sketch=1;curveFitting=1;jiggle=2;" vertex="1" parent="WIyWlLk6GJQsqaUBKTNV-1">
          <mxGeometry x="297.5" y="1480" width="95" height="40" as="geometry" />
        </mxCell>
        <mxCell id="eBTDrFPib6VvDSLRsoKk-177" style="edgeStyle=orthogonalEdgeStyle;rounded=0;orthogonalLoop=1;jettySize=auto;html=1;exitX=0;exitY=0.5;exitDx=0;exitDy=0;entryX=1;entryY=0.5;entryDx=0;entryDy=0;" edge="1" parent="WIyWlLk6GJQsqaUBKTNV-1" source="eBTDrFPib6VvDSLRsoKk-176" target="eBTDrFPib6VvDSLRsoKk-0">
          <mxGeometry relative="1" as="geometry" />
        </mxCell>
        <mxCell id="eBTDrFPib6VvDSLRsoKk-176" value="START" style="rounded=1;whiteSpace=wrap;html=1;fillColor=#6a00ff;fontColor=#ffffff;strokeColor=#3700CC;" vertex="1" parent="WIyWlLk6GJQsqaUBKTNV-1">
          <mxGeometry x="821.25" y="50" width="95" height="40" as="geometry" />
        </mxCell>
      </root>
    </mxGraphModel>
  </diagram>
</mxfile>
